# xmcd
#
# Track frame offsets: 
#        150
#        15100
#        27415
#        39295
#        49920
#        63190
#        74392
#        86895
#        105242
#        115957
#
# Disc length: 1829 seconds
#
# Revision: 5
# Processed by: cddbd v1.5.2PL0 Copyright (c) Steve Scherf et al.
# Submitted via: ExactAudioCopy v1.0b3
#
DISCID=7607230a
DTITLE=Allan, Gary - Used heart for sale
DYEAR=1996
DGENRE=Country
TTITLE0=Send back my heart
TTITLE1=Her man
TTITLE2=Forever and a day
TTITLE3=Living in a house full of love
TTITLE4=All I had going is gone
TTITLE5=Used heart for sale
TTITLE6=Of all the hearts
TTITLE7=From where I'm sitting
TTITLE8=Wine me up
TTITLE9=Wake up screaming
EXTD=
EXTT0=
EXTT1=
EXTT2=
EXTT3=
EXTT4=
EXTT5=
EXTT6=
EXTT7=
EXTT8=
EXTT9=
PLAYORDER=
